<?xml version="1.0" standalone="no"?>
<!DOCTYPE svg PUBLIC "-//W3C//DTD SVG 20010904//EN"
 "http://www.w3.org/TR/2001/REC-SVG-20010904/DTD/svg10.dtd">
<svg version="1.0" xmlns="http://www.w3.org/2000/svg"
 width="300.000000pt" height="150.000000pt" viewBox="0 0 300.000000 150.000000"
 preserveAspectRatio="xMidYMid meet">
<metadata>
Created by potrace 1.10, written by Peter Selinger 2001-2011
</metadata>
<g transform="translate(0.000000,150.000000) scale(0.100000,-0.100000)"
fill="#000000" stroke="none">
<path d="M227 1489 c6 -6 17 -11 25 -13 8 -1 27 -9 41 -19 30 -20 37 -21 37
-7 0 6 -5 10 -11 10 -6 0 -22 9 -36 20 -27 21 -76 29 -56 9z"/>
<path d="M1832 1495 c10 -11 68 -24 63 -14 -8 12 2 12 26 -1 15 -8 19 -7 19 5
0 12 -12 15 -57 15 -31 0 -54 -2 -51 -5z"/>
<path d="M2032 1489 c18 -7 33 -7 45 0 14 8 9 10 -27 10 -42 -1 -43 -1 -18
-10z"/>
<path d="M2268 1468 c5 -22 16 -23 32 -4 6 8 21 17 33 19 12 2 1 4 -24 3 -39
0 -45 -3 -41 -18z"/>
<path d="M365 1459 c-19 -7 -19 -8 1 -8 12 -1 27 -8 34 -16 7 -8 19 -15 26
-15 8 0 14 -4 14 -9 0 -6 9 -8 20 -6 29 6 31 -40 2 -62 -15 -11 -15 -12 6 -13
12 0 22 -5 22 -11 0 -7 9 -9 24 -5 33 8 53 -16 30 -38 -20 -21 -16 -25 26 -30
19 -2 39 -11 46 -20 10 -14 13 -15 24 -1 7 8 19 15 26 15 8 0 14 5 14 10 0 12
-6 13 -28 1 -19 -10 -62 3 -62 19 0 5 7 10 15 10 8 0 15 7 15 15 0 8 -7 15
-15 15 -8 0 -15 -4 -15 -10 0 -19 -18 -10 -24 13 -3 13 -18 27 -36 34 -19 7
-30 18 -30 31 0 10 -9 27 -20 37 -11 10 -20 14 -20 10 0 -4 -8 -1 -17 7 -31
26 -57 36 -78 27z"/>
<path d="M1790 1434 c0 -9 -5 -12 -12 -8 -6 4 -8 3 -5 -3 11 -17 -90 -73 -130
-73 -30 0 -34 -2 -23 -15 14 -17 40 -20 40 -5 0 5 6 7 13 4 20 -7 58 10 87 38
14 14 36 29 49 33 21 6 22 9 7 17 -9 5 -14 13 -11 19 4 5 1 9 -4 9 -6 0 -11
-7 -11 -16z"/>
<path d="M2200 1441 c0 -5 -14 -11 -31 -15 -23 -4 -30 -10 -25 -22 4 -10 2
-14 -6 -11 -7 2 -12 14 -10 26 1 15 -2 21 -10 18 -7 -2 -12 -12 -12 -21 1 -9
-4 -16 -11 -16 -8 0 -10 -9 -7 -26 4 -22 2 -24 -20 -19 -17 4 -27 2 -31 -7 -3
-10 -21 -14 -55 -13 -58 1 -61 -11 -5 -17 46 -6 101 8 128 31 12 11 33 17 53
16 17 -2 32 1 32 5 0 4 6 8 13 7 39 -1 58 4 54 16 -2 7 -15 11 -30 9 -36 -5
-34 7 4 20 23 8 27 13 17 19 -17 11 -48 11 -48 0z"/>
<path d="M1907 1421 c-7 -27 7 -35 33 -21 20 11 27 30 11 30 -5 0 -16 3 -24 6
-9 3 -16 -3 -20 -15z"/>
<path d="M1546 1377 c4 -12 1 -17 -10 -17 -9 0 -16 -4 -16 -10 0 -5 5 -10 10
-10 6 0 10 -7 10 -15 0 -20 13 -19 33 3 16 17 15 20 -9 43 -18 17 -23 19 -18
6z"/>
<path d="M1863 1377 c-18 -5 -33 -16 -33 -24 0 -8 -15 -20 -32 -28 -18 -8 -27
-14 -19 -15 7 0 37 13 66 30 41 23 54 27 64 17 10 -10 12 -8 9 7 -4 24 -14 27
-55 13z"/>
<path d="M1214 1368 c-3 -4 2 -18 11 -30 15 -21 16 -21 13 -3 -2 14 2 19 12
16 35 -8 54 -11 41 -5 -10 5 -10 8 -1 14 7 5 -5 9 -30 12 -23 2 -44 0 -46 -4z"/>
<path d="M2197 1332 c-22 -14 -31 -15 -47 -4 -23 14 -30 15 -30 3 0 -5 14 -14
30 -20 24 -8 38 -7 65 6 35 17 46 33 23 33 -7 0 -25 -8 -41 -18z"/>
<path d="M180 1331 c0 -15 28 -33 47 -29 14 3 11 8 -14 21 -18 10 -33 13 -33
8z"/>
<path d="M1349 1325 c-1 -11 -3 -26 -3 -34 -2 -21 -24 -25 -42 -7 -21 21 -60
20 -68 -1 -3 -10 -9 -24 -12 -31 -5 -11 -2 -12 14 -3 27 14 126 15 117 1 -4
-6 -3 -10 2 -9 25 4 42 -3 48 -21 3 -11 15 -20 26 -20 16 0 14 4 -12 28 -18
16 -40 48 -50 73 -12 30 -19 38 -20 24z"/>
<path d="M1450 1315 c-11 -13 -8 -15 14 -15 16 0 26 5 26 15 0 8 -6 15 -14 15
-7 0 -19 -7 -26 -15z"/>
<path d="M734 1285 c13 -14 26 -25 30 -25 13 0 5 23 -11 36 -31 23 -43 15 -19
-11z"/>
<path d="M1146 1285 c4 -8 2 -15 -4 -15 -6 0 -12 5 -14 10 -2 6 -8 2 -15 -9
-10 -17 -8 -18 26 -18 34 0 37 2 33 23 -2 13 -10 24 -18 24 -8 0 -11 -6 -8
-15z"/>
<path d="M827 1254 c-11 -12 -8 -24 6 -24 8 0 20 -11 27 -25 7 -14 22 -25 32
-25 10 0 18 -7 18 -15 0 -8 9 -15 20 -15 11 0 20 -4 20 -10 0 -5 7 -10 15 -10
8 0 14 6 13 12 -4 16 39 23 56 9 8 -6 21 -9 30 -5 9 3 24 3 34 -2 23 -10 29
-11 50 -13 30 -2 59 -34 71 -78 9 -32 17 -42 39 -48 23 -6 24 -8 9 -14 -17 -6
-16 -8 7 -19 21 -9 24 -9 19 4 -4 10 -1 15 8 13 26 -5 83 13 69 21 -7 5 -25 4
-39 -2 -14 -5 -28 -9 -31 -8 -16 6 -60 43 -60 50 0 18 38 20 76 4 l39 -16 -22
21 c-12 12 -27 21 -33 21 -6 0 -9 4 -6 9 3 5 -1 11 -9 15 -8 3 -17 1 -20 -4
-9 -15 -25 -12 -32 6 -3 9 0 20 8 25 12 8 12 10 -1 18 -9 7 -17 6 -22 -1 -5
-9 -14 -8 -35 2 -39 19 -52 21 -95 20 -49 -1 -81 18 -65 40 6 8 0 6 -13 -5
-14 -11 -28 -24 -32 -30 -12 -16 -103 37 -102 58 1 9 -2 17 -6 17 -5 0 -15 2
-22 5 -8 3 -17 2 -21 -1z"/>
<path d="M1535 1240 c3 -4 -2 -10 -10 -14 -8 -3 -15 0 -15 7 0 7 -7 3 -15 -7
-8 -10 -12 -22 -10 -26 7 -11 55 -9 55 1 0 14 26 11 65 -8 30 -14 36 -22 32
-42 -5 -27 14 -53 31 -42 32 20 -33 121 -78 121 -9 0 -20 3 -24 7 -10 10 -37
13 -31 3z"/>
<path d="M1148 1213 c-22 -6 -23 -19 -2 -27 20 -8 34 1 34 20 0 14 -2 15 -32
7z"/>
<path d="M1280 1209 c0 -5 11 -9 25 -9 16 0 25 -6 25 -15 0 -8 5 -15 10 -15
14 0 12 16 -2 27 -19 15 -58 23 -58 12z"/>
<path d="M631 1144 c-9 -20 -5 -28 29 -62 29 -30 41 -37 50 -28 8 8 13 7 20
-5 6 -11 18 -15 35 -11 37 7 14 30 -37 38 -42 7 -68 26 -68 50 0 8 6 14 14 14
28 0 24 25 -4 26 -20 1 -31 -6 -39 -22z"/>
<path d="M764 1132 c20 -38 28 -43 42 -28 15 16 -2 40 -34 50 -23 8 -23 7 -8
-22z"/>
<path d="M315 1080 c-10 -11 -16 -20 -14 -21 2 0 11 -2 20 -4 27 -5 39 8 25
27 -12 17 -14 17 -31 -2z"/>
<path d="M1102 1078 c3 -7 15 -15 29 -18 23 -6 23 -6 4 -17 -22 -12 -15 -26
13 -28 9 0 23 -4 30 -9 16 -10 15 6 -2 29 -8 11 -12 24 -9 31 2 6 -6 14 -19
18 -35 9 -50 7 -46 -6z"/>
<path d="M588 1047 c18 -7 37 -19 41 -26 5 -7 15 -11 22 -9 25 8 -28 48 -63
47 l-33 -1 33 -11z"/>
<path d="M795 1030 c-4 -6 7 -13 25 -16 17 -4 33 -11 36 -15 3 -5 10 -9 15 -9
6 0 -3 11 -19 25 -32 27 -47 31 -57 15z"/>
<path d="M1636 977 c-3 -12 -1 -26 4 -31 7 -7 10 -4 10 7 0 9 5 17 10 17 27 0
4 -31 -50 -69 -49 -35 -66 -41 -89 -36 -20 4 -42 0 -70 -14 -30 -16 -265 -60
-318 -61 -2 0 -3 11 -3 24 0 23 -16 36 -46 36 -12 0 -12 -4 -4 -21 18 -32 6
-46 -47 -52 -26 -3 -183 -24 -348 -46 -165 -23 -336 -46 -380 -52 -137 -17
-130 -33 35 -78 173 -48 158 -45 136 -27 -28 22 -13 31 18 11 16 -11 26 -13
26 -6 0 8 6 9 18 3 9 -5 33 -7 52 -6 53 5 172 5 195 0 66 -13 137 -18 131 -8
-10 17 17 20 41 5 16 -11 23 -11 29 -2 5 8 3 9 -6 4 -9 -6 -11 -4 -6 4 7 11
25 2 56 -29 3 -3 15 -6 28 -6 16 -1 22 4 22 19 0 16 3 18 12 9 13 -13 48 -16
48 -4 0 4 24 3 54 -2 30 -6 52 -14 49 -20 -4 -5 -1 -6 7 -1 10 6 9 12 -8 25
-16 13 -52 18 -174 24 -309 14 -831 46 -836 51 -3 3 -3 6 -1 8 2 2 105 16 229
31 536 65 631 78 646 93 9 10 13 10 16 1 5 -13 90 -6 298 25 65 9 78 13 55 18
-24 4 135 4 228 0 9 -1 17 -8 17 -16 0 -11 -7 -14 -25 -9 -34 8 -32 -2 5 -21
39 -20 38 -21 31 23 -6 33 -10 37 -36 38 -69 3 -76 4 -70 14 3 6 17 10 30 10
19 0 28 9 42 41 l18 40 34 -33 34 -33 -34 -5 c-27 -4 -30 -7 -16 -13 10 -4 34
-7 52 -7 52 0 65 -9 71 -51 6 -38 31 -51 28 -15 -1 9 8 19 20 22 18 4 23 13
25 50 1 25 -2 44 -9 44 -5 0 -10 -16 -10 -35 0 -54 -45 -45 -104 23 -52 59
-56 62 -92 62 -23 0 -34 5 -34 15 0 8 -9 19 -19 24 -15 9 -20 7 -25 -12z"/>
<path d="M1913 985 c-3 -9 -1 -30 6 -48 l11 -32 -5 38 c-2 20 0 37 6 37 5 0 9
-11 9 -24 0 -14 4 -27 10 -31 5 -3 8 7 7 24 -2 35 -34 61 -44 36z"/>
<path d="M880 977 c0 -15 32 -57 45 -57 7 0 18 -7 25 -15 7 -8 20 -15 30 -15
16 0 17 3 7 24 -7 15 -14 20 -19 13 -5 -8 -11 -7 -22 2 -9 8 -16 10 -16 5 0
-5 -11 5 -25 21 -13 17 -24 26 -25 22z"/>
<path d="M1188 919 c-10 -5 -18 -15 -18 -22 0 -8 3 -8 9 1 7 11 16 10 47 -5
22 -11 38 -25 36 -34 -1 -9 3 -7 13 5 20 26 19 32 -7 50 -26 18 -55 20 -80 5z"/>
<path d="M2403 923 c-25 -9 -14 -34 12 -30 14 2 25 6 25 10 0 4 0 12 0 17 0
10 -16 12 -37 3z"/>
<path d="M1121 888 c-1 -24 3 -28 27 -27 26 0 26 1 5 11 -12 6 -24 18 -26 27
-3 9 -5 4 -6 -11z"/>
<path d="M2702 898 c2 -6 17 -13 33 -15 25 -4 27 -2 15 11 -15 19 -54 22 -48
4z"/>
<path d="M2050 880 c0 -5 -7 -10 -15 -10 -8 0 -15 -5 -15 -11 0 -5 5 -7 11 -3
8 5 9 -6 4 -35 l-7 -41 41 0 c23 0 41 -4 41 -10 0 -5 9 -10 19 -10 19 0 19 2
3 41 -9 23 -24 44 -34 47 -9 2 -20 13 -23 23 -7 20 -25 26 -25 9z"/>
<path d="M1950 817 c0 -8 6 -20 14 -26 10 -9 15 -8 19 4 4 9 -2 19 -13 25 -16
8 -20 8 -20 -3z"/>
<path d="M1821 783 c12 -15 12 -16 -3 -10 -23 8 -32 -7 -13 -23 8 -7 15 -18
15 -25 0 -13 29 -29 37 -21 3 3 1 11 -3 18 -4 7 -7 27 -5 45 2 28 -1 33 -19
33 -20 0 -21 -2 -9 -17z"/>
<path d="M1620 784 c0 -20 25 -64 35 -60 6 2 18 -3 28 -12 34 -30 16 5 -23 43
-22 21 -40 35 -40 29z"/>
<path d="M2180 764 c0 -12 6 -15 23 -10 12 3 28 6 35 6 6 0 12 5 12 10 0 6
-16 10 -35 10 -26 0 -35 -4 -35 -16z"/>
<path d="M1962 715 c-31 -58 -41 -92 -23 -80 5 3 12 1 16 -5 4 -6 11 -8 16 -4
6 3 3 11 -6 18 -15 11 -16 15 -1 49 10 26 19 35 30 31 17 -7 19 0 7 30 -6 16
-13 10 -39 -39z"/>
<path d="M2247 730 c5 -19 14 -24 40 -21 6 1 20 -10 30 -24 36 -51 48 -63 73
-70 19 -6 11 6 -35 52 -52 52 -93 83 -108 83 -3 0 -3 -9 0 -20z"/>
<path d="M1103 719 c-34 -12 -28 -20 12 -17 19 1 35 5 35 9 0 12 -25 17 -47 8z"/>
<path d="M2042 688 c16 -31 23 -38 26 -25 2 9 12 17 22 17 17 0 36 27 26 38
-9 8 -38 -7 -32 -17 3 -5 -3 -7 -13 -4 -11 3 -22 11 -25 19 -3 8 -10 14 -16
14 -6 0 0 -19 12 -42z"/>
<path d="M1733 667 c30 -40 28 -57 -6 -57 -17 0 -19 -2 -7 -9 8 -6 19 -7 25
-3 17 11 55 13 55 3 0 -5 -6 -12 -12 -15 -7 -3 -4 -5 6 -3 33 4 26 20 -32 72
-54 48 -55 48 -29 12z"/>
<path d="M758 682 c-39 -8 -16 -27 34 -30 28 -1 50 0 47 1 -16 14 -67 32 -81
29z"/>
<path d="M1217 674 c6 -17 -2 -18 -28 -4 -11 7 -19 7 -19 1 0 -5 -8 -8 -17 -6
-10 2 -18 4 -18 5 0 1 -14 2 -32 3 -17 1 -29 -1 -26 -5 6 -10 -1 -10 -31 2
-18 6 -26 6 -26 -1 0 -6 -4 -8 -8 -5 -5 3 -22 1 -38 -3 -19 -6 35 -9 150 -10
99 -1 178 1 175 3 -2 2 -23 11 -46 19 -34 12 -40 12 -36 1z"/>
<path d="M2189 653 c12 -24 28 -43 36 -43 22 0 19 6 -21 47 l-36 38 21 -42z"/>
<path d="M535 671 c-6 -5 -19 -11 -30 -14 -11 -3 -2 -4 20 -2 22 2 49 5 60 5
20 1 20 1 0 10 -27 12 -39 12 -50 1z"/>
<path d="M640 670 c-29 -6 -25 -8 30 -9 45 0 60 2 50 9 -17 11 -29 11 -80 0z"/>
<path d="M2481 672 c-2 -27 20 -52 44 -52 25 0 25 0 5 20 -11 11 -24 20 -29
20 -5 0 -12 6 -14 13 -4 9 -6 9 -6 -1z"/>
<path d="M2890 658 c0 -9 -6 -18 -12 -21 -7 -2 4 -8 25 -12 44 -9 51 -4 42 25
-6 20 -8 20 -19 4 -12 -16 -14 -16 -24 2 -10 16 -11 16 -12 2z"/>
<path d="M1990 624 c0 -30 10 -30 31 -1 15 21 15 22 -7 23 -19 2 -24 -3 -24
-22z"/>
<path d="M1602 620 c7 -11 22 -19 35 -18 25 3 21 9 -19 26 -26 11 -27 10 -16
-8z"/>
<path d="M1273 576 c2 -5 12 -10 23 -12 150 -23 211 -27 219 -14 5 8 11 8 21
-1 11 -9 14 -8 14 5 0 12 -10 16 -42 17 -24 1 -87 4 -141 8 -57 3 -96 2 -94
-3z"/>
<path d="M2845 580 l-60 -7 63 -1 c36 -1 62 2 62 8 0 6 -1 9 -2 8 -2 -1 -30
-4 -63 -8z"/>
<path d="M230 554 c0 -16 60 -27 77 -13 8 7 29 9 51 6 28 -5 33 -4 19 4 -26
15 -147 18 -147 3z"/>
<path d="M1575 560 c3 -5 15 -10 26 -10 10 0 19 -7 19 -15 0 -8 5 -15 11 -15
6 0 9 6 6 13 -3 9 5 12 32 10 34 -3 34 -2 11 8 -35 15 -113 22 -105 9z"/>
<path d="M1844 556 c-4 -11 -13 -14 -30 -10 -27 7 -33 -10 -8 -20 10 -4 25 1
34 9 10 9 25 15 33 13 9 -2 17 2 19 7 5 17 -42 18 -48 1z"/>
<path d="M2415 550 c-4 -6 8 -11 27 -12 18 -1 47 -2 64 -3 17 -1 42 -5 55 -8
14 -3 37 1 56 11 31 17 31 17 -82 20 -68 1 -116 -2 -120 -8z"/>
<path d="M1888 533 c-16 -2 -28 -11 -28 -18 0 -11 6 -12 30 -3 27 9 53 30 33
27 -4 -1 -20 -4 -35 -6z"/>
<path d="M2310 525 c-11 -13 -8 -14 21 -9 55 11 70 23 28 24 -21 0 -42 -7 -49
-15z"/>
<path d="M2945 535 c-5 -2 -31 -6 -57 -10 -34 -4 -48 -11 -48 -22 0 -9 -6 -13
-15 -9 -8 3 -15 1 -15 -4 0 -6 7 -10 15 -10 8 0 15 -5 15 -11 0 -11 57 -3 75
11 17 14 19 14 45 1 24 -12 24 -11 5 4 -15 12 -31 14 -65 9 -41 -6 -44 -6 -31
9 8 10 29 17 50 18 20 0 45 4 56 9 20 9 20 9 0 9 -11 -1 -24 -2 -30 -4z"/>
<path d="M2601 513 c-8 -9 -1 -13 32 -17 66 -7 120 -2 125 12 3 9 -6 11 -39 6
-24 -4 -40 -3 -36 2 8 14 -69 11 -82 -3z"/>
<path d="M2400 510 c-12 -8 -11 -10 7 -10 12 0 29 -3 39 -7 11 -4 15 -3 11 5
-4 6 1 13 10 15 10 3 2 5 -17 6 -19 0 -42 -4 -50 -9z"/>
<path d="M2503 503 c60 -16 -46 -39 -135 -29 -51 5 -52 5 -13 -5 22 -6 86 -9
142 -7 56 2 99 0 94 -5 -5 -5 -74 -10 -155 -12 -80 -2 -150 -6 -155 -10 -5 -3
-12 -1 -16 5 -3 5 -1 10 4 10 6 0 11 5 11 10 0 6 -19 10 -42 10 -33 0 -39 -3
-28 -11 11 -8 8 -9 -15 -4 -126 24 -146 26 -102 12 21 -7 34 -16 30 -21 -4 -4
10 -5 31 -1 27 6 37 4 32 -3 -5 -8 2 -8 24 -1 23 9 34 8 47 -2 8 -8 25 -13 37
-11 12 2 40 -4 63 -12 31 -11 42 -12 40 -3 -1 8 14 12 44 13 25 0 51 4 57 8 7
4 16 5 20 2 5 -3 40 2 78 10 132 29 134 31 35 31 -76 0 -95 3 -103 17 -5 9
-17 15 -26 15 -15 -1 -15 -2 1 -6z"/>
<path d="M1259 493 c-1 -4 -1 -11 -1 -14 2 -11 -38 -18 -44 -8 -3 5 -17 9 -32
9 -24 -1 -25 -2 -9 -11 19 -11 174 -16 184 -5 6 5 -58 11 -80 7 -5 -1 -6 3 -3
8 4 5 2 12 -4 16 -5 3 -11 3 -11 -2z"/>
<path d="M1645 469 c41 -13 215 -10 215 4 0 4 -55 7 -122 6 -92 -1 -115 -3
-93 -10z"/>
<path d="M859 449 c12 -10 27 -17 31 -14 5 3 12 0 16 -6 5 -9 -1 -10 -22 -4
-49 14 -89 12 -89 -5 0 -9 10 -16 23 -16 18 -1 19 -1 2 3 -11 2 -20 9 -20 14
0 12 47 4 64 -10 7 -6 16 -8 19 -4 4 3 18 0 32 -7 14 -7 28 -10 32 -7 3 4 -1
7 -10 7 -9 0 -17 5 -17 10 0 18 28 11 44 -11 11 -17 18 -19 33 -10 16 9 15 11
-14 21 -18 7 -31 16 -28 20 8 12 -13 23 -49 25 -17 2 -31 4 -31 5 0 1 -9 3
-20 5 -18 3 -18 2 4 -16z"/>
<path d="M2724 452 c-27 -8 -67 -14 -89 -14 -33 0 -35 -1 -15 -7 22 -6 19 -8
-21 -14 -25 -3 -56 -3 -69 0 -16 4 -21 3 -16 -5 9 -15 118 -16 133 -1 7 7 31
13 55 15 24 2 63 10 88 17 44 13 45 14 14 18 -16 3 -52 -1 -80 -9z"/>
<path d="M0 447 c1 -12 66 -47 88 -47 7 0 12 6 12 13 0 9 2 9 8 0 4 -7 17 -10
31 -6 15 4 19 8 10 13 -6 5 11 9 39 11 27 2 48 1 45 -3 -2 -5 -10 -8 -18 -8
-8 0 -16 -4 -20 -9 -5 -9 29 -7 68 5 9 3 17 1 17 -5 0 -6 12 -11 28 -11 20 0
23 3 12 10 -12 7 -10 11 10 20 20 8 14 9 -30 4 -35 -3 -50 -2 -42 4 9 6 -18 9
-75 8 -48 -1 -101 3 -116 7 -19 5 -27 4 -22 -3 4 -7 -2 -7 -19 0 -19 7 -26 6
-26 -3z"/>
<path d="M407 433 c-33 -11 -44 -19 -35 -24 16 -11 34 -12 24 -2 -4 4 14 15
41 24 26 10 41 18 33 18 -8 0 -37 -7 -63 -16z"/>
<path d="M1372 439 c3 -9 21 -14 54 -14 27 -1 54 -3 59 -7 6 -3 19 -2 30 3 18
7 18 8 -5 9 -14 1 -45 2 -70 4 -25 1 -51 6 -59 10 -9 6 -12 5 -9 -5z"/>
<path d="M1855 439 c-16 -3 -22 -7 -12 -8 10 0 17 -7 14 -13 -2 -8 -17 -12
-36 -10 -25 2 -31 -2 -31 -18 0 -11 4 -20 10 -20 5 0 7 6 5 13 -4 8 7 12 35
11 22 0 40 3 40 8 0 5 17 8 38 6 20 -1 75 1 122 6 l85 10 -50 7 c-27 5 -51 5
-53 1 -3 -11 -94 -8 -117 4 -11 6 -33 7 -50 3z"/>
<path d="M2860 434 c-25 -7 -57 -13 -72 -13 -16 -1 -28 -6 -28 -12 0 -7 -10
-9 -27 -5 -15 4 -29 3 -33 -4 -3 -6 -17 -13 -31 -17 -33 -9 -278 -10 -272 0 2
4 -24 7 -59 8 -35 0 -121 2 -193 3 -71 1 -120 1 -107 -1 12 -3 20 -9 17 -14
-4 -5 17 -7 47 -5 29 3 66 -1 83 -8 19 -8 46 -10 76 -5 50 8 252 4 296 -5 16
-4 49 -2 75 2 37 7 45 7 41 -5 -8 -21 15 -41 43 -38 40 4 41 15 1 15 -36 0
-46 12 -29 36 8 12 38 19 150 34 40 5 77 12 82 15 5 3 15 -1 22 -8 10 -11 18
-12 35 -4 26 11 31 47 8 47 -8 0 -15 -5 -15 -10 0 -7 -7 -7 -21 0 -11 7 -23 9
-27 6 -3 -3 1 -6 9 -6 23 0 -12 -20 -35 -20 -20 0 -20 0 0 15 10 8 17 14 14
13 -3 0 -25 -6 -50 -14z"/>
<path d="M655 423 c5 -17 2 -21 -12 -18 -10 1 -17 8 -15 14 1 6 -8 11 -19 11
-21 0 -21 -1 4 -20 26 -21 67 -27 67 -10 0 6 3 9 8 9 4 -1 14 -1 22 0 13 1 13
3 1 10 -8 5 -21 7 -29 4 -8 -3 -18 0 -24 8 -7 10 -8 8 -3 -8z"/>
<path d="M1612 404 c-22 -11 -19 -12 30 -18 29 -3 67 -2 83 2 l30 8 -30 6
c-16 3 -41 5 -55 3 -14 -1 -27 1 -30 5 -3 3 -15 1 -28 -6z"/>
<path d="M2907 399 c-10 -6 -31 -11 -48 -11 -20 -1 -26 -4 -17 -9 9 -6 5 -9
-12 -9 -41 0 -70 -11 -70 -26 0 -11 15 -14 63 -13 58 2 60 2 22 10 -37 7 -36
7 16 6 37 -1 61 3 69 12 11 11 9 12 -9 6 -26 -8 -28 3 -1 13 11 4 16 12 12 19
-5 8 -13 8 -25 2z"/>
<path d="M1890 383 c0 -5 28 -9 63 -9 56 -1 58 -1 22 7 -52 10 -85 11 -85 2z"/>
<path d="M775 360 c-28 -7 -26 -8 15 -9 29 -1 40 -4 31 -10 -10 -7 -10 -10 -1
-16 17 -10 32 16 18 32 -11 14 -18 14 -63 3z"/>
<path d="M920 364 c0 -5 65 -34 77 -34 4 0 2 5 -3 10 -11 11 -74 31 -74 24z"/>
<path d="M1730 363 c0 -5 -29 -8 -65 -7 -43 0 -62 -3 -58 -10 3 -6 0 -5 -8 2
-16 15 -59 16 -59 1 0 -7 -11 -8 -29 -4 -17 3 -32 2 -36 -4 -6 -10 20 -10 210
3 70 5 75 6 75 16 0 6 -7 10 -15 10 -8 0 -15 -3 -15 -7z"/>
<path d="M1943 348 c7 -5 -1 -8 -18 -9 -17 -1 -6 -5 25 -8 30 -4 75 -4 100 0
25 4 59 5 75 3 30 -4 30 -4 5 7 -27 12 -206 19 -187 7z"/>
<path d="M1360 333 c0 -5 20 -8 45 -8 25 0 45 3 45 8 0 4 -20 7 -45 7 -25 0
-45 -3 -45 -7z"/>
<path d="M2355 330 c-38 -7 -39 -7 -7 -9 17 0 32 -5 32 -10 0 -16 -24 -19 -51
-5 -15 7 -29 10 -33 7 -3 -4 -6 -1 -6 6 0 9 -5 9 -22 0 -13 -7 -24 -12 -25
-11 -2 1 -11 2 -20 2 -15 0 -16 -2 -3 -10 8 -5 35 -7 60 -4 33 4 41 3 30 -5
-8 -6 -10 -11 -5 -12 6 0 21 -2 35 -3 31 -4 52 3 44 15 -6 11 7 16 66 23 25 3
61 10 80 16 31 8 29 9 -15 3 -63 -7 -65 -7 -95 -1 -14 2 -43 2 -65 -2z"/>
<path d="M2180 315 c0 -17 -11 -20 -26 -5 -6 6 -21 6 -39 1 l-30 -9 32 -1 c17
-1 38 -4 46 -7 10 -3 20 3 27 15 7 14 7 21 0 21 -5 0 -10 -7 -10 -15z"/>
<path d="M1872 302 c-6 -5 -33 -9 -59 -11 -64 -3 -72 -11 -24 -26 15 -4 21 -3
17 3 -3 5 5 12 19 14 22 5 23 3 13 -10 -11 -13 -9 -14 17 -7 17 4 36 8 43 8 6
0 12 6 12 14 0 7 8 13 18 13 15 0 15 -2 2 -11 -12 -8 -12 -10 4 -7 11 2 21 8
23 14 4 12 -67 17 -85 6z"/>
<path d="M857 294 c-3 -3 -3 -12 0 -20 7 -18 37 -18 53 1 8 9 8 15 2 15 -6 0
-13 -6 -16 -12 -3 -10 -9 -8 -19 4 -8 10 -17 15 -20 12z"/>
<path d="M958 293 c-35 -9 -17 -23 25 -20 28 1 41 -2 40 -10 -2 -8 14 -10 54
-7 31 3 59 7 62 11 4 3 -15 3 -41 1 -26 -3 -45 -2 -42 3 8 14 -64 30 -98 22z"/>
<path d="M1630 292 c-14 -2 -29 -8 -35 -14 -7 -6 -1 -7 18 -3 16 4 33 2 42 -5
7 -6 24 -10 37 -7 21 4 21 4 -4 6 -14 0 -28 7 -30 14 -2 7 -14 11 -28 9z"/>
<path d="M1990 290 c12 -8 9 -10 -12 -10 -44 0 -40 -15 8 -26 24 -6 44 -7 44
-4 0 4 22 5 48 2 36 -3 51 0 61 12 12 14 10 16 -15 16 -23 0 -26 -2 -14 -10
11 -8 7 -9 -15 -4 -16 4 -34 10 -40 14 -5 4 -26 10 -45 14 -25 4 -31 3 -20 -4z"/>
<path d="M1415 280 c12 -19 55 -31 73 -21 14 8 12 11 -13 16 -17 4 -38 9 -49
12 -12 3 -16 1 -11 -7z"/>
<path d="M2246 259 c3 -5 14 -9 25 -9 11 0 18 -4 15 -9 -4 -5 12 -7 36 -4 65
7 88 13 88 22 0 4 -20 4 -44 -2 -30 -7 -57 -7 -85 0 -22 6 -38 7 -35 2z"/>
<path d="M1360 254 c0 -3 13 -10 30 -15 16 -6 28 -16 27 -22 -1 -8 17 -13 48
-15 39 -2 46 0 32 8 -9 6 -21 9 -26 5 -5 -3 -15 1 -23 8 -13 13 -88 39 -88 31z"/>
<path d="M1514 242 c13 -22 74 -32 103 -17 15 8 30 12 35 9 4 -3 8 0 8 6 0 7
-8 9 -22 3 -28 -9 -75 -9 -107 2 -17 6 -22 5 -17 -3z"/>
<path d="M2012 211 c-15 -9 38 -21 93 -21 l30 0 -29 15 c-31 17 -74 19 -94 6z"/>
<path d="M1830 184 l-85 -12 129 4 c149 4 187 14 69 18 -16 1 -66 -4 -113 -10z"/>
<path d="M1620 182 c0 -14 80 -26 91 -15 6 6 -1 10 -21 11 -16 0 -39 4 -50 7
-11 3 -20 2 -20 -3z"/>
<path d="M2330 160 c-8 -5 -28 -10 -45 -11 l-30 -1 30 -13 c26 -11 27 -13 10
-18 -11 -3 3 -3 30 0 28 3 54 9 59 14 5 4 -8 6 -30 2 l-39 -6 19 21 c21 24 19
27 -4 12z"/>
<path d="M1564 151 c4 -5 23 -13 44 -16 20 -3 62 -10 92 -15 83 -15 163 -20
185 -13 12 4 -16 12 -75 19 -52 7 -113 15 -135 18 -22 3 -57 8 -79 12 -26 4
-36 3 -32 -5z"/>
<path d="M1997 154 c-3 -4 -41 -10 -84 -14 l-78 -7 77 -2 c42 0 80 4 83 9 4 6
13 7 24 1 13 -7 18 -6 18 5 0 14 -28 20 -40 8z"/>
<path d="M2553 141 c-79 -14 -57 -22 46 -17 56 2 105 7 109 10 3 3 -8 6 -25 6
-17 0 -43 2 -59 4 -16 2 -48 1 -71 -3z"/>
<path d="M1533 126 c9 -7 35 -16 57 -20 21 -3 42 -11 46 -18 5 -8 -5 -9 -37
-3 -143 26 -244 -1 -194 -52 8 -8 13 -19 10 -24 -4 -5 10 -9 30 -9 22 0 34 4
30 10 -3 6 -2 10 4 10 5 0 11 -4 13 -9 2 -5 24 -5 53 1 28 5 69 12 93 15 56 7
54 21 -3 21 -42 -1 -64 6 -54 16 7 8 99 13 99 6 0 -10 80 -9 86 1 3 5 2 10 -3
10 -4 1 -17 3 -28 5 -11 1 -45 10 -75 18 -30 9 -65 16 -77 16 -13 0 -23 5 -23
10 0 6 -10 10 -22 10 -21 -1 -22 -2 -5 -14z m38 -74 c8 -21 6 -22 -71 -20 -74
2 -80 4 -80 24 0 17 6 21 33 21 17 0 35 -5 39 -11 5 -7 8 -6 8 4 0 13 1 13 10
0 8 -13 10 -13 10 2 0 24 41 8 51 -20z"/>
<path d="M2407 100 c12 -5 34 -5 50 0 24 7 21 8 -22 9 -38 0 -45 -2 -28 -9z"/>
<path d="M1870 83 c-14 -7 -23 -13 -20 -14 48 -8 81 -8 76 0 -4 6 5 6 26 0 43
-12 88 -12 88 1 0 6 7 10 16 10 8 0 12 5 9 10 -4 6 -12 7 -18 3 -16 -10 -65
-16 -50 -6 19 13 -101 9 -127 -4z"/>
<path d="M2156 88 c-9 -5 -21 -6 -27 -2 -9 5 -103 -35 -97 -42 2 -1 23 2 48 8
25 5 57 10 72 10 15 1 25 5 22 9 -3 5 2 9 10 9 9 0 16 4 16 8 0 11 -24 11 -44
0z"/>
<path d="M2528 87 c-16 -6 -28 -18 -28 -26 0 -12 -3 -12 -12 -3 -7 7 -21 12
-32 12 -19 0 -19 0 -1 -14 19 -14 26 -14 58 -3 9 4 24 9 33 12 8 3 13 9 10 14
-4 5 9 8 29 6 19 -2 38 1 41 6 7 12 -65 9 -98 -4z"/>
<path d="M905 76 c11 -8 28 -16 38 -16 16 0 16 -2 1 -25 -19 -30 -12 -33 15
-6 18 18 18 20 3 34 -9 8 -30 17 -47 21 -29 7 -29 7 -10 -8z"/>
<path d="M2955 80 c-3 -6 -18 -7 -32 -4 -18 5 -24 3 -19 -5 4 -6 26 -11 49
-10 23 0 36 3 29 6 -6 2 -10 9 -6 14 3 5 1 9 -5 9 -5 0 -13 -5 -16 -10z"/>
<path d="M2401 67 c-13 -17 -5 -27 22 -27 15 0 17 3 8 13 -6 8 -8 17 -4 20 3
4 2 7 -4 7 -6 0 -16 -6 -22 -13z"/>
<path d="M1865 39 c6 -9 2 -11 -13 -7 -12 4 -20 2 -16 -3 3 -5 47 -8 97 -8
l92 2 -63 8 c-34 4 -72 11 -84 15 -15 4 -18 3 -13 -7z"/>
<path d="M2233 39 c-5 -5 -29 -10 -53 -12 -25 -2 -52 -7 -60 -10 -8 -4 -33 -8
-55 -10 -22 -2 3 -4 55 -3 55 0 105 5 119 13 14 6 29 9 35 5 13 -7 19 -9 61
-17 27 -6 28 -5 11 6 -33 20 -103 38 -113 28z"/>
<path d="M2510 40 c0 -5 13 -10 29 -10 17 0 33 5 36 10 4 6 -8 10 -29 10 -20
0 -36 -4 -36 -10z"/>
</g>
</svg>
